<svg width="22" height="19" viewBox="0 0 22 19" fill="none" xmlns="http://www.w3.org/2000/svg">
<path fill-rule="evenodd" clip-rule="evenodd" d="M0.285432 0.183774C2.0307 1.30747 3.00273 2.77949 4.8935 7.16205C5.36371 8.25195 5.58908 8.79439 6.37528 10.729C6.99781 12.2607 7.06751 12.4178 7.37563 12.9829C8.281 14.6435 9.44256 15.9291 10.9172 16.9026C12.628 18.032 14.6148 18.7004 16.9548 18.934C18.2717 19.0654 20.597 18.9892 20.8789 18.8053C20.9879 18.7342 20.989 18.7288 20.9233 18.5712C20.7963 18.266 20.162 17.0269 19.8933 16.559C18.6585 14.409 17.1702 12.5017 15.2386 10.5943C13.5105 8.88766 11.724 7.44355 9.50927 5.96295C9.17674 5.74061 8.90464 5.54857 8.90464 5.53623C8.90464 5.52384 9.0778 5.60744 9.2894 5.72197C11.7971 7.07907 14.0562 8.74572 16.1333 10.7709C18.2717 12.8557 19.8996 15.0095 21.3049 17.6128C21.458 17.8965 21.5975 18.1132 21.6149 18.0942C21.6476 18.0586 21.7981 17.2139 21.8745 16.6374C22.0325 15.4456 22.0421 13.9713 21.8989 12.8954C21.4964 9.87033 20.0689 7.33641 17.6334 5.32313C17.4883 5.20317 17.3596 5.09393 17.3476 5.08032C17.3042 5.03165 16.3961 4.39477 16.0943 4.20145C14.2961 3.04953 12.0598 2.0904 9.54225 1.39132C6.85345 0.644674 3.59519 0.143028 0.681589 0.027092L0 0L0.285432 0.183774Z" fill="#337194"/>
</svg>
