<svg width="22" height="18" viewBox="0 0 22 18" fill="none" xmlns="http://www.w3.org/2000/svg">
<path fill-rule="evenodd" clip-rule="evenodd" d="M1.89451 2.95254C0.8525 4.57646 0 5.94469 0 5.99315C0 6.14485 10.8627 18 11.0017 18C11.1399 18 22 6.14477 22 5.99392C22 5.94631 21.1482 4.57815 20.1072 2.95362L18.2143 0H11.0017H3.78903L1.89451 2.95254ZM10.1226 0.985769C10.0535 1.15115 6.55372 4.752 6.50642 4.70631C6.46431 4.66554 5.32054 2.02015 4.94552 1.09615L4.87536 0.923077H7.51206C8.96225 0.923077 10.1371 0.951308 10.1226 0.985769ZM17.0545 1.09615C16.6816 2.01508 15.5358 4.66569 15.4936 4.707C15.446 4.75354 12.2347 1.45523 11.9529 1.07031C11.8473 0.926077 11.8996 0.923077 14.4849 0.923077H17.1246L17.0545 1.09615ZM12.6026 3.38008C13.4498 4.266 14.1429 5.01023 14.1429 5.03392C14.1429 5.05754 12.7286 5.07692 11 5.07692C9.27143 5.07692 7.85714 5.05677 7.85714 5.03208C7.85714 4.95908 10.9277 1.76923 10.998 1.76923C11.0335 1.76923 11.7555 2.49408 12.6026 3.38008ZM4.79239 3.44446C5.15036 4.30238 5.42575 5.02138 5.40454 5.04223C5.38324 5.063 4.62047 5.07069 3.70951 5.05923L2.05315 5.03846L3.07984 3.43969C3.64461 2.56046 4.11447 1.85085 4.12414 1.86277C4.13372 1.87477 4.43449 2.58654 4.79239 3.44446ZM18.9453 3.48231L19.9471 5.03846L18.2906 5.05923C17.3795 5.07069 16.617 5.06323 16.5961 5.04277C16.5751 5.02223 16.8526 4.29577 17.2126 3.42838C17.5726 2.561 17.8843 1.86815 17.9053 1.88869C17.9264 1.90931 18.3944 2.62638 18.9453 3.48231ZM5.99476 6.32692C6.01684 6.37985 6.78425 8.20577 7.70008 10.3846C9.73767 15.2322 9.55413 14.77 9.3654 14.5769C9.13825 14.3445 2.01984 6.51808 1.89577 6.36438C1.79394 6.23823 1.90418 6.23077 3.87129 6.23077C5.46417 6.23077 5.96404 6.25339 5.99476 6.32692ZM14.8369 6.30654C14.7092 6.67623 11.0299 15.3048 11 15.3047C10.9701 15.3045 7.28986 6.67377 7.16312 6.30661C7.14615 6.25746 8.49546 6.23077 11 6.23077C13.5027 6.23077 14.8539 6.25746 14.8369 6.30654ZM20.1042 6.36408C19.9754 6.52339 12.8526 14.3555 12.6353 14.5769C12.4458 14.7699 12.2615 15.234 14.2999 10.3846C15.2157 8.20577 15.9832 6.37985 16.0052 6.32692C16.036 6.25339 16.5358 6.23077 18.1287 6.23077C20.0941 6.23077 20.206 6.23831 20.1042 6.36408Z" fill="#337194"/>
</svg>
