<svg width="15" height="19" viewBox="0 0 15 19" fill="none" xmlns="http://www.w3.org/2000/svg">
<path fill-rule="evenodd" clip-rule="evenodd" d="M0.0106523 0.361816C0.011381 1.29545 0.22762 2.43059 0.587475 3.3899C1.22335 5.08499 2.41434 6.60035 4.2956 8.10803C4.97912 8.65576 5.54023 9.06141 6.96737 10.0394C9.13056 11.5219 10.0356 12.2027 10.7763 12.9048L10.9426 13.0625L7.48031 13.0613C4.75216 13.0604 4.02943 13.0506 4.07194 13.0149C4.10157 12.9901 4.28894 12.8266 4.48832 12.6516C4.68766 12.4767 5.07156 12.1636 5.34141 11.9558L5.83204 11.5781H6.27479H6.71757L5.85595 10.9844C5.38204 10.6578 4.97676 10.3906 4.95532 10.3906C4.93388 10.3906 4.72982 10.5354 4.50188 10.7124C3.37235 11.5894 2.61933 12.3057 1.98501 13.1063C0.736053 14.6829 0.0943445 16.4179 0.0213741 18.4155L0 19H0.716518H1.433V18.6453C1.433 18.3342 1.45479 18.0877 1.52224 17.6362L1.54025 17.5156H7.50255H13.4648L13.508 17.8032C13.5318 17.9614 13.559 18.2954 13.5685 18.5454L13.5857 19H14.2929H15L14.9997 18.6382C14.9988 17.4282 14.6483 15.9624 14.0925 14.8438C13.2245 13.0969 11.7957 11.5966 9.35377 9.86794C9.08229 9.67579 8.86019 9.51021 8.86019 9.5C8.86019 9.48979 9.08229 9.32421 9.35377 9.13206C11.7957 7.40343 13.2245 5.9031 14.0925 4.15625C14.6483 3.03763 14.9988 1.57184 14.9997 0.361816L15 0H14.2929H13.5857L13.5685 0.45459C13.559 0.704633 13.5318 1.03858 13.508 1.19678L13.4648 1.48438H7.50519H1.54553L1.50236 1.19678C1.47859 1.03858 1.45139 0.704633 1.44188 0.45459L1.42464 0H0.71749H0.0103748L0.0106523 0.361816ZM13.0222 2.99974C13.0222 3.06921 12.6603 3.77729 12.458 4.10363L12.2415 4.45301L7.50519 4.45279L2.76888 4.45261L2.53637 4.06934C2.33071 3.73035 1.98817 3.05759 1.98817 2.99269C1.98817 2.97951 4.47083 2.96875 7.50519 2.96875C10.5395 2.96875 13.0222 2.9827 13.0222 2.99974ZM10.8656 6.02118C10.4837 6.36697 10.0208 6.75758 9.63174 7.06254L9.17327 7.42188H7.50616H5.83908L5.37964 7.06169C4.89633 6.68288 4.51177 6.35839 4.23412 6.09521L4.06774 5.9375L7.51272 5.93769L10.9577 5.93787L10.8656 6.02118ZM12.474 14.9307C12.6797 15.2697 13.0222 15.9424 13.0222 16.0073C13.0222 16.0205 10.5317 16.0312 7.48784 16.0312C4.44394 16.0312 1.95361 16.0187 1.95379 16.0034C1.95448 15.9374 2.31645 15.2197 2.51135 14.8979L2.72398 14.5469L7.48274 14.5471L12.2415 14.5474L12.474 14.9307Z" fill="#337194"/>
</svg>
