<svg width="53" height="66" viewBox="0 0 53 66" fill="none" xmlns="http://www.w3.org/2000/svg">
<path fill-rule="evenodd" clip-rule="evenodd" d="M53 64.5841C53 65.212 52.247 65.5233 51.8126 65.075L44.6613 57.6968C44.3897 57.4165 43.9436 57.4165 43.672 57.6968L35.828 65.7898C35.5564 66.0701 35.1103 66.0701 34.8387 65.7898L26.9946 57.6968C26.723 57.4165 26.277 57.4165 26.0054 57.6968L18.1613 65.7898C17.8897 66.0701 17.4436 66.0701 17.172 65.7898L9.32796 57.6968C9.05635 57.4165 8.61032 57.4165 8.33871 57.6968L1.18743 65.075C0.752971 65.5233 0 65.212 0 64.5841V1.41586C0 0.787998 0.752971 0.476719 1.18743 0.924973L8.33871 8.30325C8.61032 8.58348 9.05635 8.58348 9.32796 8.30325L17.172 0.21017C17.4436 -0.070057 17.8897 -0.0700566 18.1613 0.210171L26.0054 8.30325C26.277 8.58348 26.723 8.58348 26.9946 8.30325L34.8387 0.21017C35.1103 -0.070057 35.5564 -0.0700566 35.828 0.210171L43.672 8.30325C43.9437 8.58348 44.3897 8.58348 44.6613 8.30325L51.8126 0.924973C52.247 0.476719 53 0.787997 53 1.41586V64.5841ZM8.31373 42.1137C7.35715 42.1137 6.5817 42.8984 6.5817 43.8664C6.5817 44.8343 7.35715 45.619 8.31373 45.619H45.0327C45.9893 45.619 46.7647 44.8343 46.7647 43.8664C46.7647 42.8984 45.9893 42.1137 45.0327 42.1137H8.31373ZM8.31373 31.2474C7.35715 31.2474 6.5817 32.032 6.5817 33C6.5817 33.968 7.35715 34.7526 8.31373 34.7526H45.0327C45.9893 34.7526 46.7647 33.968 46.7647 33C46.7647 32.032 45.9893 31.2474 45.0327 31.2474H8.31373ZM8.31373 20.381C7.35715 20.381 6.5817 21.1657 6.5817 22.1336C6.5817 23.1016 7.35715 23.8863 8.31373 23.8863H45.0327C45.9893 23.8863 46.7647 23.1016 46.7647 22.1336C46.7647 21.1657 45.9893 20.381 45.0327 20.381H8.31373Z" fill="#337194"/>
</svg>
